<?xml version="1.0"?>
<svg xmlns="http://www.w3.org/2000/svg" xmlns:xlink="http://www.w3.org/1999/xlink" version="1.1" id="Capa_1" x="0px" y="0px" viewBox="0 0 512.067 512.067" style="enable-background:new 0 0 512.067 512.067;" xml:space="preserve" width="512px" height="512px" class=""><g><g>
	<path style="fill:#74A8FF" d="M507.234,485.934c4.499,4.199,5.999,10.8,3.898,16.5c-2.399,5.7-7.798,9.6-14.099,9.6h-181   c-101.7,0-185.099-71.201-194.099-164.5l194.099-139.799l64.501-46.501c77.999,25.201,131.499,93.301,131.499,169.801   c0,42.9-16.199,84.399-45.901,116.8L507.234,485.934z" data-original="#979FEF" class="" data-old_color="#979FEF"/>
	<path style="fill:#4665EB" d="M507.234,485.934c4.499,4.199,5.999,10.8,3.898,16.5c-2.399,5.7-7.798,9.6-14.099,9.6h-181v-304.3   l64.501-46.501c77.999,25.201,131.499,93.301,131.499,169.801c0,42.9-16.199,84.399-45.901,116.8L507.234,485.934z" data-original="#737EE6" class="" data-old_color="#74A8FF"/>
	<path style="fill:#FC4B4B" d="M196.034,0.034c-107.401,0-196,81.7-196,181c0,42.9,16.199,83.399,45.901,115.8L4.833,334.934   c-4.499,4.199-5.999,10.8-3.898,16.5c2.399,5.7,7.798,9.6,14.099,9.6h181c107.4,0,195-80.7,195-180S303.434,0.034,196.034,0.034z" data-original="#9BFCFF" class="" data-old_color="#9BFCFF"/>
	<path style="fill:#F05942" d="M391.034,181.034c0,99.3-87.599,180-195,180v-361C303.434,0.034,391.034,81.734,391.034,181.034z" data-original="#76E2F8" class="" data-old_color="#76E2F8"/>
	<path style="fill:#FFD466" d="M301.034,106.034c0,8.401-6.599,15-15,15h-180c-8.401,0-15-6.599-15-15s6.599-15,15-15h180   C294.434,91.034,301.034,97.633,301.034,106.034z" data-original="#47568C" class="" data-old_color="#E6A632"/>
	<path style="fill:#FFD466" d="M301.034,166.034c0,8.399-6.599,15-15,15h-180c-8.401,0-15-6.601-15-15c0-8.401,6.599-15,15-15h180   C294.434,151.034,301.034,157.633,301.034,166.034z" data-original="#47568C" class="" data-old_color="#E6A632"/>
	<path style="fill:#FFD466" d="M301.034,226.034c0,8.399-6.599,15-15,15h-180c-8.401,0-15-6.601-15-15c0-8.401,6.599-15,15-15h180   C294.434,211.034,301.034,217.633,301.034,226.034z" data-original="#47568C" class="" data-old_color="#E6A632"/>
	<path style="fill:#E6A632" d="M301.034,226.034c0,8.399-6.599,15-15,15h-90v-30h90   C294.434,211.034,301.034,217.633,301.034,226.034z" data-original="#2C3B73" class="active-path" data-old_color="#FFD466"/>
	<path style="fill:#E6A632" d="M301.034,166.034c0,8.399-6.599,15-15,15h-90v-30h90   C294.434,151.034,301.034,157.633,301.034,166.034z" data-original="#2C3B73" class="active-path" data-old_color="#FFD466"/>
	<path style="fill:#E6A632" d="M286.034,121.034h-90v-30h90c8.401,0,15,6.599,15,15S294.434,121.034,286.034,121.034z" data-original="#2C3B73" class="active-path" data-old_color="#FFD466"/>
</g></g> </svg>
